<svg width="125" height="29" viewBox="0 0 125 29" fill="none" xmlns="http://www.w3.org/2000/svg">
<path opacity="0.89" d="M0 4.5C0 2.29086 1.79086 0.5 4 0.5H24C26.2091 0.5 28 2.29086 28 4.5V24.5C28 26.7091 26.2091 28.5 24 28.5H4C1.79086 28.5 0 26.7091 0 24.5V4.5Z" fill="#12B886"/>
<path d="M19.4023 19.7715C19.5521 19.9212 19.6888 20.0319 19.8125 20.1035C19.9362 20.1686 20.0339 20.2044 20.1055 20.2109C20.1771 20.2174 20.278 20.2207 20.4082 20.2207C20.5449 20.2207 20.7305 20.1589 20.9648 20.0352L21.2773 20.7383C20.8411 21.2786 20.304 21.6595 19.666 21.8809C19.3991 21.972 19.1842 22.0176 19.0215 22.0176C18.403 22.0176 17.8822 21.8613 17.459 21.5488C17.0358 21.2363 16.6712 20.875 16.3652 20.4648C16.0592 20.0547 15.7695 19.5859 15.4961 19.0586C14.9883 18.0951 14.5977 17.1152 14.3242 16.1191C13.7383 16.1973 13.097 16.2363 12.4004 16.2363V18.3848C12.4004 18.9121 12.4395 19.7552 12.5176 20.9141L12.5566 21.5C12.0033 21.6693 11.3424 21.7539 10.5742 21.7539C9.8125 21.7539 9.32747 21.6693 9.11914 21.5C9.30794 20.1263 9.40234 19.0781 9.40234 18.3555V10.5234C9.40234 9.94401 9.35026 9.57292 9.24609 9.41016C9.14193 9.2474 9.07357 9.14323 9.04102 9.09766C9.00846 9.04557 8.94987 8.99674 8.86523 8.95117C8.78711 8.89909 8.73177 8.86328 8.69922 8.84375C8.6276 8.8112 8.51367 8.76888 8.35742 8.7168C8.25977 8.46289 8.21094 8.21224 8.21094 7.96484C8.21094 7.71094 8.21419 7.55469 8.2207 7.49609C9.96549 7.22917 11.8926 7.0957 14.002 7.0957H14.5586C15.9453 7.12174 17.1302 7.46354 18.1133 8.12109C18.5951 8.44661 18.9792 8.86979 19.2656 9.39062C19.5521 9.91146 19.6953 10.5007 19.6953 11.1582C19.6953 12.252 19.4316 13.1862 18.9043 13.9609C18.3835 14.7292 17.5208 15.3086 16.3164 15.6992C16.8242 16.3828 17.2507 16.9688 17.5957 17.457C17.9408 17.9453 18.2207 18.3327 18.4355 18.6191C18.6504 18.9056 18.8262 19.1302 18.9629 19.293C19.1061 19.4557 19.2526 19.6152 19.4023 19.7715ZM16.8047 11.1777C16.8047 9.45898 15.7826 8.59961 13.7383 8.59961C13.3542 8.59961 12.9082 8.62565 12.4004 8.67773V14.7227C14.7051 14.625 16.082 14.013 16.5312 12.8867C16.7135 12.4115 16.8047 11.8418 16.8047 11.1777Z" fill="white"/>
<path d="M50.888 11.12C50.888 12.304 50.52 13.288 49.784 14.072C49.048 14.84 48.072 15.376 46.856 15.68L51.776 23H49.28L44.744 15.92H42.512V23H40.448V6.464H44.672C46.72 6.464 48.264 6.856 49.304 7.64C50.36 8.424 50.888 9.584 50.888 11.12ZM48.68 11.12C48.68 10.064 48.376 9.304 47.768 8.84C47.16 8.376 46.208 8.144 44.912 8.144H42.512V14.288H44.936C46.168 14.288 47.096 14.04 47.72 13.544C48.36 13.032 48.68 12.224 48.68 11.12ZM57.4786 13.76H63.6226V15.464H57.4786V21.32H65.0146V23H55.4146V6.464H64.7986L64.5586 8.192H57.4786V13.76ZM78.4933 6.464H80.5813L75.0613 23H72.9013L67.3813 6.464H69.6133L74.0293 20.624L78.4933 6.464ZM93.0999 8.144H89.4279V21.344H93.0999V23H83.6439V21.344H87.3159V8.144H83.6439V6.464H93.0999V8.144ZM100.651 13.76H106.795V15.464H100.651V21.32H108.187V23H98.5865V6.464H107.971L107.731 8.192H100.651V13.76ZM115.041 13.76H121.185V15.464H115.041V21.32H122.577V23H112.977V6.464H122.361L122.121 8.192H115.041V13.76Z" fill="#12B886"/>
</svg>
