<svg width="14" height="23" viewBox="0 0 14 23" fill="none" xmlns="http://www.w3.org/2000/svg">
<path fill-rule="evenodd" clip-rule="evenodd" d="M0.909973 13.09C0.488622 12.6682 0.251953 12.0963 0.251953 11.5C0.251953 10.9038 0.488622 10.3319 0.909973 9.91003L9.39397 1.42303C9.81606 1.00114 10.3885 0.764203 10.9853 0.764343C11.2808 0.764413 11.5733 0.822685 11.8463 0.935832C12.1193 1.04898 12.3673 1.21478 12.5762 1.42378C12.7851 1.63278 12.9508 1.88088 13.0638 2.15391C13.1768 2.42695 13.235 2.71957 13.2349 3.01506C13.2348 3.31056 13.1766 3.60316 13.0634 3.87613C12.9503 4.14911 12.7845 4.39713 12.5755 4.60603L5.68297 11.5L12.577 18.394C12.792 18.6015 12.9635 18.8497 13.0815 19.1241C13.1996 19.3986 13.2618 19.6938 13.2645 19.9926C13.2673 20.2913 13.2105 20.5876 13.0975 20.8642C12.9845 21.1407 12.8175 21.392 12.6064 21.6034C12.3952 21.8148 12.1441 21.9819 11.8676 22.0952C11.5911 22.2085 11.2949 22.2655 10.9961 22.2631C10.6974 22.2606 10.4021 22.1987 10.1276 22.0809C9.85299 21.9631 9.60463 21.7918 9.39697 21.577L0.906974 13.09H0.909973Z" fill="black"/>
</svg>
